<svg width="16" height="16" viewBox="0 0 16 16" fill="none" xmlns="http://www.w3.org/2000/svg">
<path fill-rule="evenodd" clip-rule="evenodd" d="M13.1583 7.20873C13.4526 7.14543 13.5621 7.18629 13.586 7.19779C13.5958 7.21833 13.6182 7.28566 13.6027 7.44453C13.5802 7.67516 13.4834 8.00153 13.2857 8.41003C12.8933 9.22103 12.1695 10.221 11.1952 11.1953C10.221 12.1695 9.22103 12.8933 8.40999 13.2857C8.00149 13.4834 7.67513 13.5802 7.44449 13.6027C7.28566 13.6182 7.21833 13.5958 7.19776 13.586C7.18626 13.5621 7.14539 13.4527 7.20869 13.1583C7.28536 12.8018 7.48959 12.3219 7.83456 11.7606C8.25246 11.0806 8.84986 10.3248 9.58733 9.58733C10.3248 8.84989 11.0805 8.25246 11.7605 7.83456C12.3219 7.48963 12.8018 7.28539 13.1583 7.20873ZM1.47059 9.74676L6.25319 14.5294C6.62706 14.9032 7.13419 14.9726 7.57386 14.9298C8.01946 14.8863 8.50489 14.721 8.99073 14.486C9.96836 14.0129 11.0872 13.1889 12.138 12.1381C13.1889 11.0873 14.0129 9.96839 14.4859 8.99076C14.721 8.50493 14.8863 8.01949 14.9297 7.57389C14.9726 7.13423 14.9032 6.62709 14.5293 6.25323L9.74673 1.47062C9.28419 1.00809 8.62546 1.00857 8.09533 1.12258C7.53599 1.24287 6.91109 1.52806 6.27983 1.916C5.49923 2.39571 4.66266 3.06117 3.86189 3.86193C3.06114 4.66266 2.39568 5.49926 1.91597 6.27986C1.52803 6.91113 1.24284 7.53603 1.12255 8.09536C1.00854 8.62549 1.00806 9.28423 1.47059 9.74676Z" fill="white"/>
</svg>
